<svg width="24" height="24" viewBox="0 0 24 24" fill="none" xmlns="http://www.w3.org/2000/svg">
    <path fill-rule="evenodd" clip-rule="evenodd"
          d="M12 16C13.933 16 15.5 14.433 15.5 12.5C15.5 10.567 13.933 9 12 9C10.067 9 8.5 10.567 8.5 12.5C8.5 14.433 10.067 16 12 16ZM12 15.125C13.4497 15.125 14.625 13.9497 14.625 12.5C14.625 11.0503 13.4497 9.875 12 9.875C10.5503 9.875 9.375 11.0503 9.375 12.5C9.375 13.9497 10.5503 15.125 12 15.125Z"
          fill="black"/>
    <path fill-rule="evenodd" clip-rule="evenodd"
          d="M16.2143 5.5C15.1658 4.53614 14.1997 3.75 11.969 3.75C9.73823 3.75 8.77217 4.53614 7.7236 5.5H4.125C2.67525 5.5 1.5 6.67525 1.5 8.125V16.875C1.5 18.3247 2.67525 19.5 4.125 19.5H19.875C21.3247 19.5 22.5 18.3247 22.5 16.875V8.125C22.5 6.67525 21.3247 5.5 19.875 5.5H16.2143ZM15.8721 6.375L15.7803 6.29017C15.6929 6.20939 15.6083 6.13119 15.5278 6.05781C15.1987 5.75782 14.9066 5.50857 14.5916 5.30148C13.9978 4.91117 13.2546 4.625 11.969 4.625C10.6834 4.625 9.94014 4.91117 9.34637 5.30148C9.03134 5.50857 8.73921 5.75782 8.4101 6.05781C8.32943 6.13133 8.24519 6.20922 8.15765 6.29016L8.06584 6.375H4.125C3.1585 6.375 2.375 7.1585 2.375 8.125V16.875C2.375 17.8415 3.1585 18.625 4.125 18.625H19.875C20.8415 18.625 21.625 17.8415 21.625 16.875V8.125C21.625 7.1585 20.8415 6.375 19.875 6.375H15.8721Z"
          fill="black"/>
</svg>
